# xmcd
# 
# Track frame offsets:
#     150
#     15843
#     34945
#     56578
#     76778
#     84895
#     104878
#     121635
#     140308
#     158990
# 
# Disc length: 2239
# 
# Revision: 5
# Processed by: cddbd v1.5.2PL0 Copyright (c) Steve Scherf et al.
# Submitted via: BonkEnc v1.0.8
# 
DISCID=6d08bd0a
DTITLE=Lee Ritenour - "Rit"
DYEAR=1981
DGENRE=AOR
TTITLE0=Mr. Briefcase
TTITLE1=Tell Me Pretty Lies
TTITLE2=No Sympathy
TTITLE3=Is It You?
TTITLE4=Dreamwalk
TTITLE5=Countdown (Captain Fingers)
TTITLE6=Good Question
TTITLE7=(You caught me) Smilin'
TTITLE8=On The Slow Glide
TTITLE9=No Sympathy
EXTD=YEAR: 1981
EXTT0=
EXTT1=
EXTT2=
EXTT3=
EXTT4=
EXTT5=
EXTT6=
EXTT7=
EXTT8=
EXTT9=
PLAYORDER=
